<svg width="84" height="84" viewBox="0 0 84 84" fill="none" xmlns="http://www.w3.org/2000/svg">
<g clip-path="url(#clip0_5_604)">
<path d="M16.1608 44.2325C21.8251 58.4634 37.925 74.5804 56.9776 74.5804C63.0239 74.5804 68.2637 72.724 71.6344 71.09C64.3129 78.5289 53.8232 83.6039 41.8572 83.6039C22.9299 83.6039 11.5081 72.2259 11.5081 60.018C11.5081 51.4918 14.5531 46.0209 16.1608 44.2325ZM71.0877 11.9696C78.5335 19.2979 83.6086 29.7828 83.6086 41.749C83.6086 60.6774 72.2259 72.0993 60.0203 72.0993C51.4882 72.0993 46.0232 69.052 44.2313 67.4476C58.4644 61.7776 74.5815 45.6836 74.5815 26.6274C74.5815 20.5822 72.723 15.3391 71.0877 11.9696ZM23.5847 11.5081C32.1168 11.5081 37.5843 14.5531 39.3761 16.1631C25.1406 21.8297 9.02462 37.9214 9.02462 56.9822C9.02462 63.0216 10.8843 68.2647 12.515 71.6367C5.07161 64.3163 0 53.8232 0 41.8629C0 22.9286 11.3826 11.5081 23.5847 11.5081ZM41.7478 0C60.6764 0 72.1004 11.3815 72.1004 23.5847C72.1004 32.1191 69.053 37.5854 67.4453 39.3725C61.7776 25.1406 45.6826 9.02693 26.6297 9.02693C20.5822 9.02693 15.3437 10.8878 11.9718 12.5173C19.2933 5.07276 29.7828 0 41.7478 0Z" fill="#DA291C"/>
</g>
<defs>
<clipPath id="clip0_5_604">
<rect width="84" height="84" fill="white"/>
</clipPath>
</defs>
</svg>
